<svg width="21" height="21" viewBox="0 0 21 21" fill="none" xmlns="http://www.w3.org/2000/svg">
<g id="watch_later_24px">
<path id="icon/action/watch_later_24px" fill-rule="evenodd" clip-rule="evenodd" d="M1.75 10.5C1.75 5.6875 5.6875 1.75 10.5 1.75C15.3125 1.75 19.25 5.6875 19.25 10.5C19.25 15.3125 15.3125 19.25 10.5 19.25C5.6875 19.25 1.75 15.3125 1.75 10.5ZM10.0362 11.6288L13.6062 13.825C13.9212 14.0175 14.3325 13.9213 14.525 13.615C14.7175 13.3 14.6125 12.8888 14.2975 12.6963L10.9375 10.675V6.78125C10.9375 6.4225 10.64 6.125 10.2812 6.125C9.92248 6.125 9.62498 6.4225 9.61623 6.78125V10.885C9.61623 11.1913 9.77373 11.4713 10.0362 11.6288Z" fill="#F48C1E"/>
</g>
</svg>
