<svg width="60" height="60" viewBox="0 0 60 60" fill="none" xmlns="http://www.w3.org/2000/svg">
<g id="add_circle_24px">
<path id="icon/content/add_circle_24px" fill-rule="evenodd" clip-rule="evenodd" d="M5 30C5 16.2 16.2 5 30 5C43.8 5 55 16.2 55 30C55 43.8 43.8 55 30 55C16.2 55 5 43.8 5 30ZM32.5 32.5H40C41.375 32.5 42.5 31.375 42.5 30C42.5 28.625 41.375 27.5 40 27.5H32.5V20C32.5 18.625 31.375 17.5 30 17.5C28.625 17.5 27.5 18.625 27.5 20V27.5H20C18.625 27.5 17.5 28.625 17.5 30C17.5 31.375 18.625 32.5 20 32.5H27.5V40C27.5 41.375 28.625 42.5 30 42.5C31.375 42.5 32.5 41.375 32.5 40V32.5Z" fill="#7FC151"/>
</g>
</svg>
